# xmcd CD database file
# Copyright (C) 1995-1998 Ti Kan
#
# Track frame offsets:
#	150
#	11880
#	20987
#	40537
#	48495
#	60960
#	71120
#	87010
#	97077
#	108372
#	121647
#	139355
#	150005
#	159557
#	173805
#	180855
#	193342
#	203067
#	215595
#	224937
#	235870
#	248042
#
# Disc length: 3449 seconds
#
# Revision: 1
# Processed by: cddbd v1.4b41PL1 Copyright (c) Steve Scherf et al.
# Submitted via: CDex 1.30
#
DISCID=340d7716
DTITLE=Anne Murray - The Signature Series, Volume 1 (This Way Is My Way/Hone
DTITLE=y Wheat and Laughter)
DYEAR=1970
DGENRE=Country
TTITLE0=Bidin' My Time
TTITLE1=Sittin' Back Lovin' You
TTITLE2=No One Is To Blame
TTITLE3=I Wonder How The Old Folks Are At Home
TTITLE4=Sunspots
TTITLE5=He May Call
TTITLE6=Thirsty Boots
TTITLE7=Snowbird
TTITLE8=Hard As I Try
TTITLE9=I'll Be Your Baby Tonight
TTITLE10=Nice To Be With You
TTITLE11=Fire And Rain
TTITLE12=Rain
TTITLE13=Someone Else Today
TTITLE14=Head Above The Water
TTITLE15=Break My Mind
TTITLE16=The Call
TTITLE17=Put Your Hand In The Hand
TTITLE18=Running
TTITLE19=Musical Friends
TTITLE20=Get Together
TTITLE21=Night Owl
EXTD=\nYEAR: 1970  ID3G:   2
EXTT0=
EXTT1=
EXTT2=
EXTT3=
EXTT4=
EXTT5=
EXTT6=
EXTT7=
EXTT8=
EXTT9=
EXTT10=
EXTT11=
EXTT12=
EXTT13=
EXTT14=
EXTT15=
EXTT16=
EXTT17=
EXTT18=
EXTT19=
EXTT20=
EXTT21=
PLAYORDER=
